# xmcd
#
# Track frame offsets:
#	150
#	11783
#	24217
#	41319
#	55267
#	65126
#	78800
#	92659
#	107771
#	127593
#	140117
#	143767
#	154990
#	173241
#	187279
#	192474
#	216755
#	220195
#
# Disc length: 3122 seconds
#
# Revision: 1
# Processed by: cddbd v1.5.2PL0 Copyright (c) Steve Scherf et al.
# Submitted via: audiograbber 1.83.01
#
DISCID=020c3012
DTITLE=Monroe Crossing - Because You Asked
DYEAR=2015
DGENRE=Bluegrass
TTITLE0=Mule Skinner Blues
TTITLE1=Old Home Place
TTITLE2=Another Night
TTITLE3=Do You Love An Apple?
TTITLE4=Ground Speed
TTITLE5=He Did Rise
TTITLE6=Summer Of '69
TTITLE7=Don't Get Above Your Raisin'
TTITLE8=Ashokan Farewell
TTITLE9=Rocky Top
TTITLE10=A Word About Bluegrass Styles
TTITLE11=My Girl
TTITLE12=Who Will Watch The Home Place
TTITLE13=You Are My Sunshine
TTITLE14=Band Introductions
TTITLE15=Orange Blossom Special
TTITLE16=Encore!
TTITLE17=Man Of Constant Sorrow
EXTD=
EXTT0=
EXTT1=
EXTT2=
EXTT3=
EXTT4=
EXTT5=
EXTT6=
EXTT7=
EXTT8=
EXTT9=
EXTT10=
EXTT11=
EXTT12=
EXTT13=
EXTT14=
EXTT15=
EXTT16=
EXTT17=
PLAYORDER=
